<?xml version="1.0" standalone="no"?>
<!DOCTYPE svg PUBLIC "-//W3C//DTD SVG 20010904//EN"
 "http://www.w3.org/TR/2001/REC-SVG-20010904/DTD/svg10.dtd">
<svg version="1.0" xmlns="http://www.w3.org/2000/svg"
 width="600.000000pt" height="600.000000pt" viewBox="0 0 600.000000 600.000000"
 preserveAspectRatio="xMidYMid meet">
<metadata>
Created by potrace 1.14, written by Peter Selinger 2001-2017
</metadata>
<g transform="translate(0.000000,600.000000) scale(0.100000,-0.100000)"
fill="#000000" stroke="none">
<path d="M540 4943 c-14 -10 -33 -27 -42 -38 -16 -19 -17 -122 -18 -1602 0
-952 4 -1591 9 -1606 5 -14 24 -35 41 -47 l31 -22 2428 0 c1966 0 2436 2 2465
13 36 13 74 68 61 89 -3 6 -3 10 2 10 10 0 9 122 -1 138 -4 7 -4 12 1 12 4 0
8 18 8 40 0 22 -4 40 -8 40 -5 0 -5 6 0 13 11 18 10 161 -2 169 -6 5 -6 8 1 8
11 0 11 40 1 57 -3 5 -2 15 3 23 5 8 5 22 -1 32 -5 10 -6 18 -2 18 5 0 7 17 5
38 -3 43 -3 40 1 117 2 33 -1 66 -6 73 -5 6 -6 12 -1 12 5 0 9 18 9 40 0 22
-4 40 -8 40 -5 0 -5 6 0 13 11 18 10 161 -2 169 -6 5 -6 8 1 8 11 0 11 40 1
57 -3 5 -2 15 3 23 5 8 5 22 -1 32 -5 10 -6 18 -2 18 5 0 7 17 5 38 -3 43 -3
40 1 117 2 33 -1 66 -6 73 -5 6 -6 12 -1 12 5 0 9 18 9 40 0 22 -4 40 -8 40
-5 0 -5 6 0 13 11 18 10 161 -2 169 -6 5 -6 8 1 8 11 0 11 40 1 57 -3 5 -2 15
3 23 5 8 5 22 -1 32 -5 10 -6 18 -2 18 5 0 7 17 5 38 -3 43 -3 40 1 117 2 33
-1 66 -6 73 -5 6 -6 12 -1 12 5 0 9 18 9 40 0 22 -4 40 -8 40 -5 0 -5 6 0 13
11 18 10 161 -2 169 -6 5 -6 8 1 8 11 0 11 40 1 57 -3 5 -2 15 3 23 5 8 5 22
-1 32 -5 10 -6 18 -2 18 5 0 7 17 5 38 -3 43 -3 40 1 117 2 33 -1 66 -6 73 -5
6 -6 12 -1 12 5 0 9 18 9 40 0 22 -4 40 -8 40 -5 0 -5 6 0 13 10 17 10 167 -1
167 -5 0 -4 6 1 13 10 13 9 92 -1 146 -7 34 -27 61 -44 61 -6 0 -12 6 -14 13
-4 9 -504 13 -2449 14 -2297 3 -2446 2 -2469 -14z m615 -2701 c-3 -3 -11 0
-18 7 -9 10 -8 11 6 5 10 -3 15 -9 12 -12z m320 0 c-3 -3 -11 0 -18 7 -9 10
-8 11 6 5 10 -3 15 -9 12 -12z m480 0 c-3 -3 -11 0 -18 7 -9 10 -8 11 6 5 10
-3 15 -9 12 -12z m480 0 c-3 -3 -11 0 -18 7 -9 10 -8 11 6 5 10 -3 15 -9 12
-12z m240 0 c-3 -3 -11 0 -18 7 -9 10 -8 11 6 5 10 -3 15 -9 12 -12z m160 0
c-3 -3 -11 0 -18 7 -9 10 -8 11 6 5 10 -3 15 -9 12 -12z m160 0 c-3 -3 -11 0
-18 7 -9 10 -8 11 6 5 10 -3 15 -9 12 -12z m160 0 c-3 -3 -11 0 -18 7 -9 10
-8 11 6 5 10 -3 15 -9 12 -12z m160 0 c-3 -3 -11 0 -18 7 -9 10 -8 11 6 5 10
-3 15 -9 12 -12z m160 0 c-3 -3 -11 0 -18 7 -9 10 -8 11 6 5 10 -3 15 -9 12
-12z m160 0 c-3 -3 -11 0 -18 7 -9 10 -8 11 6 5 10 -3 15 -9 12 -12z m160 0
c-3 -3 -11 0 -18 7 -9 10 -8 11 6 5 10 -3 15 -9 12 -12z m400 0 c-3 -3 -11 0
-18 7 -9 10 -8 11 6 5 10 -3 15 -9 12 -12z m480 0 c-3 -3 -11 0 -18 7 -9 10
-8 11 6 5 10 -3 15 -9 12 -12z m480 0 c-3 -3 -11 0 -18 7 -9 10 -8 11 6 5 10
-3 15 -9 12 -12z"/>
<path d="M2445 1508 c-35 -21 -58 -62 -57 -102 0 -16 -4 -38 -9 -49 -15 -27
-46 -56 -53 -49 -3 3 -6 0 -6 -6 0 -7 -5 -12 -10 -12 -19 0 -172 -100 -202
-132 -114 -123 -107 -312 12 -325 14 -2 40 -5 58 -7 17 -2 32 0 32 6 0 5 5 6
11 2 9 -5 1623 -9 1654 -3 6 1 14 1 18 0 14 -2 59 38 73 64 17 33 9 125 -17
180 -25 52 -80 115 -126 141 -18 10 -33 22 -33 27 0 4 -4 5 -10 2 -5 -3 -10
-1 -10 4 0 6 -4 10 -8 8 -12 -4 -131 75 -138 92 -3 9 -8 34 -10 56 -4 53 -22
83 -59 103 -27 15 -87 17 -555 17 -484 1 -528 0 -555 -17z"/>
</g>
</svg>
